<svg width="512" height="512" viewBox="0 0 512 512" fill="none" xmlns="http://www.w3.org/2000/svg">
<path d="M331.611 163.799C353.872 163.799 371.917 140.099 371.917 110.864C371.917 81.6283 353.872 57.9282 331.611 57.9282C309.35 57.9282 291.303 81.6283 291.303 110.864C291.303 140.099 309.35 163.799 331.611 163.799Z" stroke="black" stroke-width="30" stroke-linecap="round" stroke-linejoin="round"/>
<path d="M180.397 163.799C202.658 163.799 220.704 140.099 220.704 110.864C220.704 81.6283 202.658 57.9282 180.397 57.9282C158.136 57.9282 140.09 81.6283 140.09 110.864C140.09 140.099 158.136 163.799 180.397 163.799Z" stroke="black" stroke-width="30" stroke-linecap="round" stroke-linejoin="round"/>
<path d="M440.785 298.192C464.176 298.192 483.138 274.492 483.138 245.257C483.138 216.021 464.176 192.321 440.785 192.321C417.393 192.321 398.427 216.021 398.427 245.257C398.427 274.492 417.393 298.192 440.785 298.192Z" stroke="black" stroke-width="30" stroke-linecap="round" stroke-linejoin="round"/>
<path d="M71.1948 298.192C94.5866 298.192 113.55 274.492 113.55 245.257C113.55 216.021 94.5866 192.321 71.1948 192.321C47.8026 192.321 28.8394 216.021 28.8394 245.257C28.8394 274.492 47.8026 298.192 71.1948 298.192Z" stroke="black" stroke-width="30" stroke-linecap="round" stroke-linejoin="round"/>
<path d="M361.867 383.488C361.867 432.19 304.696 454.071 255.996 454.071C207.295 454.071 150.125 432.19 150.125 383.488C150.125 334.788 185.415 259.973 255.996 259.973C326.576 259.973 361.867 334.788 361.867 383.488Z" stroke="black" stroke-width="30" stroke-linecap="round" stroke-linejoin="round"/>
</svg>
